HIERARCHY
ROOT Hips
{
	OFFSET 0.000000 0.000000 0.000000
	CHANNELS 6 Xposition Yposition Zposition Xrotation Yrotation Zrotation
	JOINT Chest
	{
		OFFSET 0.000000 0.009282 11.569106
		CHANNELS 6 Xposition Yposition Zposition Xrotation Yrotation Zrotation
		JOINT Chest2
		{
			OFFSET 0.000000 -0.016863 9.269641
			CHANNELS 6 Xposition Yposition Zposition Xrotation Yrotation Zrotation
			JOINT Chest3
			{
				OFFSET 0.000000 0.000000 8.374491
				CHANNELS 6 Xposition Yposition Zposition Xrotation Yrotation Zrotation
				JOINT Chest4
				{
					OFFSET 0.000000 0.000000 8.374493
					CHANNELS 6 Xposition Yposition Zposition Xrotation Yrotation Zrotation
					JOINT Neck
					{
						OFFSET 0.000000 -0.000001 12.152554
						CHANNELS 6 Xposition Yposition Zposition Xrotation Yrotation Zrotation
						JOINT Head
						{
							OFFSET 0.000000 -0.040100 7.802319
							CHANNELS 6 Xposition Yposition Zposition Xrotation Yrotation Zrotation
							End Site
							{
								OFFSET 0.000000 -0.020946 14.853096
							}
						}
					}
					JOINT RightCollar
					{
						OFFSET -2.894404 0.000000 6.791374
						CHANNELS 6 Xposition Yposition Zposition Xrotation Yrotation Zrotation
						JOINT RightShoulder
						{
							OFFSET -13.574684 0.000000 0.000000
							CHANNELS 6 Xposition Yposition Zposition Xrotation Yrotation Zrotation
							JOINT RightElbow
							{
								OFFSET -23.923903 0.000000 0.000000
								CHANNELS 6 Xposition Yposition Zposition Xrotation Yrotation Zrotation
								JOINT RightWrist
								{
									OFFSET -19.846718 -0.012765 0.000000
									CHANNELS 6 Xposition Yposition Zposition Xrotation Yrotation Zrotation
									End Site
									{
										OFFSET -14.973145 0.000000 0.000000
									}
								}
							}
						}
					}
					JOINT LeftCollar
					{
						OFFSET 2.894404 0.000000 6.791374
						CHANNELS 6 Xposition Yposition Zposition Xrotation Yrotation Zrotation
						JOINT LeftShoulder
						{
							OFFSET 13.574684 0.000000 0.000000
							CHANNELS 6 Xposition Yposition Zposition Xrotation Yrotation Zrotation
							JOINT LeftElbow
							{
								OFFSET 23.923903 0.000000 0.000000
								CHANNELS 6 Xposition Yposition Zposition Xrotation Yrotation Zrotation
								JOINT LeftWrist
								{
									OFFSET 19.846718 -0.012765 0.000000
									CHANNELS 6 Xposition Yposition Zposition Xrotation Yrotation Zrotation
									End Site
									{
										OFFSET 14.973145 0.000000 0.000000
									}
								}
							}
						}
					}
				}
			}
		}
	}
	JOINT RightHip
	{
		OFFSET -9.469263 -0.004642 0.045487
		CHANNELS 6 Xposition Yposition Zposition Xrotation Yrotation Zrotation
		JOINT RightKnee
		{
			OFFSET 0.000000 -0.002666 -40.478676
			CHANNELS 6 Xposition Yposition Zposition Xrotation Yrotation Zrotation
			JOINT RightAnkle
			{
				OFFSET 0.000000 -0.049110 -35.224068
				CHANNELS 6 Xposition Yposition Zposition Xrotation Yrotation Zrotation
				JOINT RightToe
				{
					OFFSET 0.000000 -12.539530 -6.151390
					CHANNELS 6 Xposition Yposition Zposition Xrotation Yrotation Zrotation
					End Site
					{
						OFFSET 0.000000 -5.044995 -1.291870
					}
				}
			}
		}
	}
	JOINT LeftHip
	{
		OFFSET 9.469263 -0.004642 0.045487
		CHANNELS 6 Xposition Yposition Zposition Xrotation Yrotation Zrotation
		JOINT LeftKnee
		{
			OFFSET 0.000000 -0.002666 -40.478676
			CHANNELS 6 Xposition Yposition Zposition Xrotation Yrotation Zrotation
			JOINT LeftAnkle
			{
				OFFSET 0.000000 -0.049110 -35.224068
				CHANNELS 6 Xposition Yposition Zposition Xrotation Yrotation Zrotation
				JOINT LeftToe
				{
					OFFSET 0.000000 -12.539530 -6.151390
					CHANNELS 6 Xposition Yposition Zposition Xrotation Yrotation Zrotation
					End Site
					{
						OFFSET 0.000000 -5.044995 -1.291870
					}
				}
			}
		}
	}
}
MOTION
Frames: 6
Frame Time: 0.016667
-11.637862 -7.240825 83.043076 2.290452 5.060582 -111.211073 -0.000001 0.009284 11.569107 2.845135 0.045309 0.879390 -0.000000 -0.016863 9.269638 1.263251 0.014011 0.385353 -0.000000 0.000000 8.374494 1.263252 0.014011 0.385352 0.000000 0.000001 8.374494 0.947447 0.009712 0.289040 -0.000000 -0.000001 12.152558 16.625188 -0.371508 -1.431829 0.000000 -0.040100 7.802317 -5.305039 -0.171468 -2.740444 -2.894404 0.000002 6.791375 -23.086477 -5.328359 -3.559524 -13.574683 0.000008 -0.000000 -62.236479 -19.171014 1.374625 -23.923901 0.000001 -0.000001 -32.990391 -45.130960 46.004118 -19.846712 -0.012760 0.000003 -44.913729 37.340702 30.109407 2.894405 0.000002 6.791377 -15.363804 5.705172 -0.943377 13.574686 -0.000003 -0.000008 -61.228268 18.033707 -2.321154 23.923897 -0.000003 -0.000001 -36.288580 37.622570 -43.920271 19.846718 -0.012765 0.000002 -43.707630 -39.909181 -14.388094 -9.469264 -0.004640 0.045495 7.101834 0.610972 -2.907151 0.000335 -0.002691 -40.478535 2.995223 -1.263702 -7.171394 -0.000138 -0.049122 -35.224239 -3.936323 0.060688 2.941916 0.000000 -12.539531 -6.151383 0.010408 -0.008828 -0.005182 9.469262 -0.004641 0.045485 8.256928 0.429345 -0.257942 -0.000095 -0.002667 -40.478622 1.372840 -0.864406 2.027590 -0.000002 -0.049122 -35.224262 -4.416006 0.854468 0.092077 0.000000 -12.539534 -6.151392 0.022715 0.001886 0.006923 
-11.635224 -7.238009 83.042831 2.290745 5.061781 -111.207993 0.000000 0.009282 11.569108 2.864908 0.049721 0.876247 -0.000000 -0.016861 9.269662 1.272134 0.015994 0.384060 0.000001 0.000000 8.374491 1.272133 0.015994 0.384056 0.000001 -0.000001 8.374496 0.954110 0.011196 0.288077 -0.000001 -0.000004 12.152550 16.605016 -0.366645 -1.428260 0.000001 -0.040100 7.802321 -5.342447 -0.163457 -2.732264 -2.894404 -0.000001 6.791369 -23.098105 -5.326861 -3.571805 -13.574683 0.000006 -0.000004 -62.256532 -19.189596 1.341697 -23.923901 -0.000008 -0.000001 -33.009550 -45.100931 45.981144 -19.846706 -0.012763 0.000002 -44.836674 37.341696 30.062798 2.894404 -0.000001 6.791367 -15.384446 5.700491 -0.942427 13.574681 -0.000000 -0.000011 -61.237475 18.056163 -2.317979 23.923899 -0.000003 -0.000000 -36.343464 37.614542 -43.869458 19.846716 -0.012765 0.000013 -43.606031 -39.788369 -14.304726 -9.469263 -0.004642 0.045493 7.104002 0.610011 -2.914334 0.000335 -0.002691 -40.478531 2.992321 -1.264880 -7.153512 -0.000137 -0.049124 -35.224243 -3.936290 0.062003 2.923882 0.000002 -12.539531 -6.151382 0.011713 -0.005103 -0.004884 9.469265 -0.004643 0.045483 8.257268 0.427630 -0.257767 -0.000095 -0.002669 -40.478611 1.371778 -0.867929 2.020660 -0.000005 -0.049120 -35.224274 -4.412949 0.855903 0.092772 -0.000001 -12.539535 -6.151385 0.021764 0.003285 0.007090 
-11.633002 -7.234609 83.042908 2.289776 5.062215 -111.207228 0.000001 0.009282 11.569103 2.877627 0.054530 0.875897 -0.000001 -0.016863 9.269636 1.277824 0.018153 0.383876 -0.000001 0.000001 8.374484 1.277824 0.018153 0.383882 -0.000001 0.000000 8.374499 0.958380 0.012812 0.287949 -0.000001 -0.000002 12.152555 16.589715 -0.366592 -1.424594 -0.000001 -0.040103 7.802292 -5.370888 -0.164341 -2.725589 -2.894405 0.000002 6.791378 -23.086729 -5.315352 -3.592316 -13.574680 -0.000004 0.000004 -62.278443 -19.221981 1.304418 -23.923895 -0.000010 -0.000000 -33.052030 -45.075543 45.963550 -19.846712 -0.012770 0.000006 -44.739320 37.306282 29.970833 2.894403 -0.000000 6.791382 -15.409743 5.694543 -0.933564 13.574687 -0.000001 -0.000000 -61.230105 18.084143 -2.321424 23.923897 -0.000010 -0.000000 -36.398870 37.613111 -43.810930 19.846720 -0.012762 0.000006 -43.401235 -39.639232 -14.158980 -9.469263 -0.004642 0.045483 7.107789 0.609298 -2.922015 0.000333 -0.002690 -40.478516 2.983808 -1.264221 -7.128272 -0.000138 -0.049123 -35.224247 -3.934329 0.063544 2.928483 0.000001 -12.539529 -6.151382 0.013427 -0.002409 -0.004985 9.469265 -0.004642 0.045485 8.256810 0.425506 -0.248621 -0.000093 -0.002669 -40.478619 1.371375 -0.868016 2.006835 -0.000007 -0.049119 -35.224274 -4.409448 0.856114 0.094594 -0.000000 -12.539529 -6.151378 0.019618 0.003843 0.007174 
-11.633047 -7.232029 83.042488 2.288740 5.059560 -111.208396 0.000001 0.009280 11.569126 2.883334 0.060113 0.876545 0.000000 -0.016862 9.269641 1.280058 0.020386 0.384402 0.000000 0.000001 8.374491 1.280058 0.020386 0.384401 0.000000 -0.000001 8.374488 0.960057 0.014484 0.288344 -0.000001 -0.000002 12.152556 16.580132 -0.369519 -1.421328 -0.000001 -0.040100 7.802318 -5.388801 -0.170634 -2.720696 -2.894405 0.000000 6.791370 -23.093862 -5.322691 -3.597664 -13.574683 0.000002 0.000011 -62.282166 -19.231610 1.274304 -23.923906 -0.000002 0.000000 -33.103051 -45.076390 45.935116 -19.846731 -0.012765 0.000000 -44.640279 37.253996 29.878792 2.894403 -0.000002 6.791376 -15.409597 5.700287 -0.941869 13.574683 -0.000004 -0.000003 -61.227790 18.088277 -2.336652 23.923895 -0.000012 0.000001 -36.429439 37.601691 -43.759970 19.846727 -0.012767 0.000000 -43.203655 -39.579556 -14.069899 -9.469263 -0.004644 0.045499 7.111927 0.604495 -2.933477 0.000332 -0.002691 -40.478531 2.969817 -1.262884 -7.101021 -0.000136 -0.049122 -35.224247 -3.931804 0.066312 2.890217 0.000001 -12.539531 -6.151385 0.015968 0.000768 -0.005617 9.469265 -0.004643 0.045507 8.257236 0.427658 -0.238984 -0.000095 -0.002669 -40.478619 1.366572 -0.876954 1.994932 -0.000003 -0.049120 -35.224274 -4.406971 0.860440 0.097852 -0.000001 -12.539531 -6.151385 0.019338 0.004026 0.007345 
-11.635068 -7.229043 83.041473 2.286530 5.057697 -111.211585 -0.000000 0.009282 11.569116 2.886719 0.066539 0.877945 0.000001 -0.016864 9.269649 1.281123 0.023260 0.385061 -0.000000 0.000000 8.374495 1.281124 0.023260 0.385063 -0.000001 0.000000 8.374496 0.960857 0.016638 0.288848 0.000001 -0.000002 12.152568 16.575039 -0.372803 -1.419846 0.000000 -0.040102 7.802318 -5.398350 -0.177042 -2.719168 -2.894403 0.000000 6.791377 -23.093525 -5.344712 -3.588411 -13.574683 0.000005 0.000001 -62.299808 -19.216391 1.256253 -23.923899 -0.000009 -0.000000 -33.162802 -45.097103 45.884828 -19.846733 -0.012769 -0.000006 -44.552228 37.218753 29.809223 2.894405 -0.000001 6.791381 -15.415365 5.711227 -0.954196 13.574684 -0.000006 0.000007 -61.210776 18.074801 -2.364247 23.923895 -0.000009 0.000004 -36.416803 37.560935 -43.718371 19.846725 -0.012764 0.000002 -43.175091 -39.630936 -14.136667 -9.469264 -0.004641 0.045498 7.118552 0.603162 -2.949159 0.000331 -0.002690 -40.478535 2.954895 -1.259560 -7.077914 -0.000134 -0.049124 -35.224243 -3.931590 0.066278 2.864799 0.000002 -12.539531 -6.151381 0.019493 0.001929 -0.005386 9.469263 -0.004642 0.045496 8.261305 0.430866 -0.236727 -0.000092 -0.002670 -40.478607 1.358459 -0.883021 1.990088 -0.000006 -0.049120 -35.224266 -4.404576 0.862484 0.103071 -0.000001 -12.539532 -6.151381 0.019305 0.004269 0.006900 
-11.636376 -7.225397 83.040237 2.285968 5.057225 -111.219529 -0.000001 0.009281 11.569109 2.889572 0.072148 0.882269 0.000000 -0.016865 9.269650 1.282457 0.025673 0.387060 0.000001 -0.000000 8.374489 1.282457 0.025672 0.387060 -0.000001 0.000001 8.374507 0.961859 0.018442 0.290353 -0.000000 -0.000004 12.152557 16.570135 -0.376241 -1.421322 -0.000000 -0.040099 7.802310 -5.407507 -0.182682 -2.723096 -2.894404 0.000000 6.791382 -23.075190 -5.343353 -3.598493 -13.574685 0.000001 0.000004 -62.339581 -19.227570 1.227868 -23.923897 0.000003 -0.000000 -33.204077 -45.121131 45.839855 -19.846720 -0.012765 -0.000005 -44.490179 37.239021 29.776835 2.894403 -0.000001 6.791386 -15.443063 5.716646 -0.957777 13.574684 0.000001 -0.000008 -61.165321 18.073565 -2.389229 23.923891 -0.000008 -0.000001 -36.376259 37.507151 -43.704734 19.846737 -0.012768 0.000001 -43.100324 -39.735199 -14.209065 -9.469263 -0.004643 0.045493 7.122279 0.602468 -2.948577 0.000331 -0.002690 -40.478523 2.948294 -1.256877 -7.068559 -0.000135 -0.049123 -35.224255 -3.935126 0.065107 2.877491 0.000001 -12.539532 -6.151383 0.022398 0.002735 -0.004975 9.469263 -0.004642 0.045488 8.265584 0.431783 -0.230111 -0.000094 -0.002666 -40.478619 1.354688 -0.886913 1.977772 -0.000004 -0.049119 -35.224270 -4.405312 0.862736 0.114463 0.000001 -12.539534 -6.151378 0.019760 0.005314 0.006930 
